<svg width="442" height="42" viewBox="0 0 442 42" fill="none" xmlns="http://www.w3.org/2000/svg">
<path d="M79.2895 28.0966C79.1868 30.7818 77.5773 32.9719 74.4701 34.6693C71.8408 36.1259 69.0689 36.8594 66.1453 36.8594C63.2537 36.8594 60.4647 36.1259 57.7806 34.6693C54.5935 32.94 53 30.7487 53 28.0966V13.757C53 11.1037 54.5935 8.91246 57.7806 7.18431C60.4647 5.72651 63.2537 4.99305 66.1453 4.99305C69.0689 4.99305 71.8408 5.72651 74.4701 7.18431C77.5534 8.88052 79.1549 11.0718 79.2895 13.757H72.1203C71.9047 12.5376 71.1484 11.5417 69.8491 10.7695C68.7347 10.1079 67.4993 9.77367 66.1453 9.77367C64.8153 9.77367 63.54 10.1079 62.3217 10.7695C60.8867 11.5417 60.1704 12.5376 60.1704 13.757V28.0966C60.1704 29.3148 60.8867 30.3107 62.3217 31.0841C63.54 31.7445 64.8153 32.0799 66.1453 32.0799C67.4993 32.0799 68.7347 31.7445 69.8491 31.0841C71.1484 30.3107 71.9047 29.3148 72.1203 28.0966H79.2895ZM108.368 29.8487C108.368 31.9761 107.11 33.7293 104.584 35.1073C102.433 36.2776 100.203 36.8594 97.8919 36.8594C95.558 36.8594 93.3109 36.2776 91.1607 35.1073C88.6352 33.7293 87.377 31.9761 87.377 29.8487V18.3779C87.377 16.2505 88.6352 14.4973 91.1607 13.1193C93.3109 11.9478 95.558 11.3672 97.8919 11.3672C100.203 11.3672 102.433 11.9478 104.584 13.1193C107.11 14.4973 108.368 16.2505 108.368 18.3779V29.8487ZM102.631 29.8487V18.3779C102.631 17.4209 102.059 16.6247 100.919 15.987C99.9394 15.4532 98.9276 15.1908 97.8919 15.1908C96.8322 15.1908 95.8056 15.4532 94.8246 15.987C93.6862 16.6247 93.1124 17.4209 93.1124 18.3779V29.8487C93.1124 30.8046 93.6862 31.6019 94.8246 32.2384C95.8056 32.7723 96.8322 33.0358 97.8919 33.0358C98.9276 33.0358 99.9394 32.7723 100.919 32.2384C102.059 31.6019 102.631 30.8046 102.631 29.8487ZM135.096 15.1908H122.19V22.2015H130.316V26.0251H122.19V36.8594H116.454V13.9155C116.454 13.1433 116.916 12.5056 117.848 12.0037C118.622 11.5817 119.426 11.3672 120.278 11.3672H135.096V15.1908ZM161.823 15.1908H148.917V22.2015H157.044V26.0251H148.917V36.8594H143.182V13.9155C143.182 13.1433 143.644 12.5056 144.576 12.0037C145.349 11.5817 146.153 11.3672 147.007 11.3672H161.823V15.1908ZM188.552 36.8594H173.734C172.881 36.8594 172.077 36.6449 171.303 36.2217C170.371 35.721 169.909 35.0833 169.909 34.3099V13.9155C169.909 13.1433 170.371 12.5056 171.303 12.0037C172.077 11.5817 172.881 11.3672 173.734 11.3672H188.552V15.1908H175.646V22.2015H183.771V26.0251H175.646V33.0358H188.552V36.8594ZM216.753 36.8594H201.935C201.083 36.8594 200.278 36.6449 199.506 36.2217C198.574 35.721 198.111 35.0833 198.111 34.3099V13.9155C198.111 13.1433 198.574 12.5056 199.506 12.0037C200.278 11.5817 201.083 11.3672 201.935 11.3672H216.753V15.1908H203.847V22.2015H211.974V26.0251H203.847V33.0358H216.753V36.8594Z" fill="white"/>
<path d="M277.773 37H271.668L271.709 15.2847L263.786 30.3372C260.961 35.703 256.546 34.9753 254.337 30.9201L245.534 14.7668L245.568 37H239.465V8.32076C239.465 7.36486 239.996 6.56296 241.058 5.93101C241.963 5.39261 242.922 5.13367 243.935 5.13367C245.926 5.13367 247.434 6.2196 248.602 8.31276L259.137 27.1832L268.652 8.32076C269.734 6.17626 271.321 5.13367 273.312 5.13367C274.324 5.13367 275.28 5.39717 276.181 5.93101C277.24 6.56752 277.773 7.36486 277.773 8.32076V37ZM310.357 37H304.318L301.983 31.2646H291.269L288.847 37H282.832L292.511 14.0562C293.228 12.3599 294.598 11.5078 296.614 11.5078C298.606 11.5078 299.961 12.3599 300.677 14.0562L310.357 37ZM300.391 27.441L296.614 18.5904L292.886 27.441H300.391ZM336.447 29.9905C336.367 32.1407 335.093 33.8939 332.623 35.2479C330.496 36.4194 328.266 37 325.931 37C323.621 37 321.391 36.4194 319.24 35.2479C316.69 33.8688 315.415 32.1167 315.415 29.9905V18.5185C315.415 16.3911 316.69 14.6379 319.24 13.26C321.391 12.0885 323.621 11.5078 325.931 11.5078C328.266 11.5078 330.488 12.0885 332.583 13.26C335.053 14.614 336.343 16.3672 336.447 18.5185H330.712C330.528 17.5387 329.93 16.7413 328.918 16.1276C328.018 15.5938 327.022 15.3314 325.931 15.3314C324.871 15.3314 323.86 15.5938 322.905 16.1276C321.733 16.7653 321.151 17.5615 321.151 18.5185V29.9905C321.151 30.9464 321.733 31.7426 322.905 32.3802C323.86 32.914 324.871 33.1764 325.931 33.1764C327.022 33.1764 328.018 32.914 328.918 32.3802C329.93 31.7665 330.528 30.9692 330.712 29.9905H336.447ZM367.039 37H361.303V26.1657H351.742V37H346.007V11.5078H351.742V22.3421H361.303V11.5078H367.039V37ZM382.335 37H376.599V11.5078H382.335V37ZM412.926 34.4517C412.926 35.224 412.504 35.8616 411.651 36.3635C410.934 36.7856 410.162 37 409.34 37C407.931 37 406.704 36.1479 405.637 34.4517L397.63 21.5448V37H391.894V14.0562C391.894 13.2839 392.316 12.6463 393.169 12.1455C393.886 11.7223 394.659 11.5078 395.479 11.5078C396.889 11.5078 398.124 12.3599 399.184 14.0562L407.19 26.9619V11.5078H412.926V34.4517ZM441.127 37H426.311C425.457 37 424.653 36.7856 423.88 36.3635C422.948 35.8616 422.486 35.224 422.486 34.4517V14.0562C422.486 13.2839 422.948 12.6463 423.88 12.1455C424.653 11.7223 425.457 11.5078 426.311 11.5078H441.127V15.3314H428.221V22.3421H436.347V26.1657H428.221V33.1764H441.127V37Z" fill="white"/>
<path fill-rule="evenodd" clip-rule="evenodd" d="M5.92237 26.4037V11.2038C5.92237 4.31866 15.5263 4.38893 15.5263 11.2038V17.0465H21.4486V11.2027C21.4498 4.31865 31.0526 4.38931 31.0526 11.2038V15.3828V17.0465H36.9749V15.3828V10.9638C36.9749 -0.120775 24.3643 -2.94362 18.4824 3.1508C12.5957 -2.83458 0 -0.369016 0 11.2038V16.0326V26.4037V30.7962C0 42.369 12.5957 44.8346 18.4824 38.8492C24.3645 44.9436 36.9749 42.1208 36.9749 31.0362V26.7862V23.6412H31.0526V26.7862V30.7962C31.0526 37.6107 21.4498 37.6813 21.4486 30.7973V23.6412H15.5263V30.7962C15.5263 37.6111 5.92237 37.6813 5.92237 30.7962V26.4037Z" fill="white"/>
<path fill-rule="evenodd" clip-rule="evenodd" d="M41.1325 22.6225V20.5756H39.1639C38.4874 20.5756 37.9145 20.9316 37.9514 21.6883C37.9747 22.1701 38.3194 22.615 38.9972 22.6106C38.9972 22.6106 39.0192 23.0893 39.3383 23.4134C39.8032 23.886 40.736 23.7693 41.0291 23.1447C41.1006 22.9925 41.1325 22.8168 41.1325 22.6225ZM41.5747 18.1559V20.2027H43.5432C44.2198 20.2027 44.7926 19.8466 44.7558 19.09C44.7323 18.6083 44.3878 18.1633 43.7097 18.1675C43.7097 18.1675 43.6878 17.6888 43.3689 17.365C42.9039 16.8922 41.9711 17.009 41.6778 17.6336C41.6066 17.7856 41.5747 17.9615 41.5747 18.1559ZM41.1325 18.1559V20.2027H39.1639C38.4874 20.2027 37.9145 19.8468 37.9514 19.09C37.9749 18.6083 38.3194 18.1633 38.9972 18.1675C38.9972 18.1675 39.0192 17.689 39.3383 17.365C39.8032 16.8922 40.736 17.0089 41.0291 17.6336C41.1008 17.7856 41.1325 17.9615 41.1325 18.1559ZM41.5747 22.6225V20.5756H43.5432C44.2198 20.5756 44.7926 20.9316 44.7558 21.6883C44.7323 22.1699 44.3878 22.615 43.7097 22.6106C43.7097 22.6106 43.6878 23.0893 43.3689 23.4134C42.9039 23.886 41.9709 23.7693 41.6778 23.1447C41.6066 22.9925 41.5747 22.8168 41.5747 22.6225Z" fill="white"/>
</svg>
