<svg width="44" height="30" viewBox="0 0 44 30" fill="none" xmlns="http://www.w3.org/2000/svg">
<g clip-path="url(#clip0_601_66)">
<path d="M30.9484 1.50498L43.8352 27.1692C44.5378 28.5685 42.9059 30 40.6082 30H31.132C29.6553 30 28.3485 29.3884 27.9016 28.4882L15.1614 2.82395C14.4674 1.42604 16.0987 0 18.3918 0H27.7214C29.194 0 30.4981 0.608195 30.9484 1.50498Z" fill="#32C5FB" fill-opacity="0.4"/>
<path d="M17.2677 0H27.3398C29.8061 0 31.5656 1.40692 30.8319 2.79242L17.2243 28.488C16.7481 29.3874 15.3332 30 13.7322 30H3.66024C1.19387 30 -0.565574 28.5931 0.168139 27.2076L13.7756 1.51193C14.252 0.612595 15.6669 0 17.2677 0Z" fill="#32C5FB"/>
</g>
<defs>
<clipPath id="clip0_601_66">
<rect width="44" height="30" fill="white"/>
</clipPath>
</defs>
</svg>
