<svg width="269" height="56" viewBox="0 0 269 56" fill="none" xmlns="http://www.w3.org/2000/svg">
<path d="M57.7704 2.80929L81.8257 50.7159C83.1373 53.328 80.0911 56 75.8019 56H58.1131C55.3565 56 52.9172 54.8584 52.0831 53.178L28.3012 5.27138C27.0058 2.66194 30.0509 0 34.3313 0H51.7466C54.4955 0 56.9299 1.1353 57.7704 2.80929Z" fill="#32C5FB" fill-opacity="0.4"/>
<path d="M32.2331 0H51.0342C55.6381 0 58.9224 2.62626 57.5528 5.21251L32.152 53.1777C31.2631 54.8565 28.6219 56 25.6334 56H6.83244C2.22855 56 -1.05574 53.3737 0.313859 50.7874L25.7145 2.82227C26.6037 1.14351 29.2448 0 32.2331 0Z" fill="#32C5FB"/>
<path d="M109.984 39H104.953L102.953 33.7969H93.7969L91.9062 39H87L95.9219 16.0938H100.812L109.984 39ZM101.469 29.9375L98.3125 21.4375L95.2188 29.9375H101.469ZM127.281 31.5469L131.781 31.1094C132.052 32.6198 132.599 33.7292 133.422 34.4375C134.255 35.1458 135.375 35.5 136.781 35.5C138.271 35.5 139.391 35.1875 140.141 34.5625C140.901 33.9271 141.281 33.1875 141.281 32.3438C141.281 31.8021 141.12 31.3438 140.797 30.9688C140.484 30.5833 139.932 30.25 139.141 29.9688C138.599 29.7812 137.365 29.4479 135.438 28.9688C132.958 28.3542 131.219 27.599 130.219 26.7031C128.812 25.4427 128.109 23.9062 128.109 22.0938C128.109 20.9271 128.438 19.8385 129.094 18.8281C129.76 17.8073 130.714 17.0312 131.953 16.5C133.203 15.9688 134.708 15.7031 136.469 15.7031C139.344 15.7031 141.505 16.3333 142.953 17.5938C144.411 18.8542 145.177 20.5365 145.25 22.6406L140.625 22.8438C140.427 21.6667 140 20.8229 139.344 20.3125C138.698 19.7917 137.724 19.5312 136.422 19.5312C135.078 19.5312 134.026 19.8073 133.266 20.3594C132.776 20.7135 132.531 21.1875 132.531 21.7812C132.531 22.3229 132.76 22.7865 133.219 23.1719C133.802 23.6615 135.219 24.1719 137.469 24.7031C139.719 25.2344 141.38 25.7865 142.453 26.3594C143.536 26.9219 144.38 27.6979 144.984 28.6875C145.599 29.6667 145.906 30.8802 145.906 32.3281C145.906 33.6406 145.542 34.8698 144.812 36.0156C144.083 37.1615 143.052 38.0156 141.719 38.5781C140.385 39.1302 138.724 39.4062 136.734 39.4062C133.839 39.4062 131.615 38.7396 130.062 37.4062C128.51 36.0625 127.583 34.1094 127.281 31.5469ZM186.453 39H181.422L179.422 33.7969H170.266L168.375 39H163.469L172.391 16.0938H177.281L186.453 39ZM177.938 29.9375L174.781 21.4375L171.688 29.9375H177.938ZM204.969 39V16.0938H209.469L218.844 31.3906V16.0938H223.141V39H218.5L209.266 24.0625V39H204.969ZM250.062 39V29.3594L241.672 16.0938H247.094L252.484 25.1562L257.766 16.0938H263.094L254.672 29.3906V39H250.062Z" fill="#0D2451"/>
</svg>
