<?xml version="1.0" encoding="utf-8"?>
<!-- Generator: Adobe Illustrator 19.2.1, SVG Export Plug-In . SVG Version: 6.00 Build 0)  -->
<svg version="1.1" id="图层_1" xmlns="http://www.w3.org/2000/svg" xmlns:xlink="http://www.w3.org/1999/xlink" x="0px" y="0px"
	 viewBox="0 0 20 20" style="enable-background:new 0 0 20 20;" xml:space="preserve">
<style type="text/css">
	.st0{fill:#D8D8D8;fill-opacity:0;}
	.st1{fill:#464D5B;}
</style>
<title>print</title>
<desc>Created with Sketch.</desc>
<g id="print">
	<rect id="矩形" class="st0" width="20" height="20"/>
	<path id="形状结合" class="st1" d="M14.6,3c0.2,0,0.3,0.1,0.3,0.3l0,0v2.3h1.8c0.2,0,0.3,0.1,0.3,0.3l0,0v7.3
		c0,0.2-0.1,0.3-0.3,0.3l0,0h-1.9v2.3c0,0.2-0.1,0.3-0.3,0.3l0,0h-9c-0.2,0-0.3-0.1-0.3-0.3l0,0v-2.3H3.3c-0.2,0-0.3-0.1-0.3-0.3
		l0,0V5.9c0-0.2,0.1-0.3,0.3-0.3l0,0h1.8V3.3C5.1,3.1,5.3,3,5.4,3l0,0H14.6z M13.6,11.5H6.4v3.5h7.2v-1.4h0V11.5z M15.8,6.8H4.2v5.5
		h1v-1.7c0-0.2,0.1-0.3,0.3-0.3l0,0h9c0.2,0,0.3,0.1,0.3,0.3l0,0v1.7h1V6.8z M14.8,7.4v1.2h-1.8V7.4H14.8z M13.7,4.2H6.3v1.4h7.4
		V4.2z"/>
</g>
</svg>
