<?xml version="1.0" encoding="utf-8"?>
<!-- Generator: Adobe Illustrator 19.2.1, SVG Export Plug-In . SVG Version: 6.00 Build 0)  -->
<svg version="1.1" id="图层_1" xmlns="http://www.w3.org/2000/svg" xmlns:xlink="http://www.w3.org/1999/xlink" x="0px" y="0px"
	 viewBox="0 0 20 20" style="enable-background:new 0 0 20 20;" xml:space="preserve">
<style type="text/css">
	.st0{display:none;fill:#D8D8D8;fill-opacity:0;}
	.st1{fill:#464D5B;}
</style>
<title>编组 31</title>
<desc>Created with Sketch.</desc>
<g id="hidocs">
	<g id="编组-31" transform="translate(-4.000000, -3.000000)">
		<rect id="矩形" x="3.5" y="3.5" class="st0" width="20" height="20"/>
		<path id="形状" class="st1" d="M17.2,17.4c-1,0.8-2.3,1.2-3.6,1.2c-3.3,0-6-2.7-6-6s2.7-6,6-6s6,2.7,6,6c0,1.4-0.4,2.6-1.2,3.6
			l1.9,1.9c0.3,0.3,0.3,0.9,0,1.2c-0.3,0.3-0.9,0.3-1.2,0L17.2,17.4L17.2,17.4z M13.5,16.9c2.4,0,4.3-1.9,4.3-4.3s-1.9-4.3-4.3-4.3
			s-4.3,1.9-4.3,4.3S11.2,16.9,13.5,16.9z"/>
	</g>
</g>
</svg>
