<svg width="44" height="42" viewBox="0 0 44 42" fill="none" xmlns="http://www.w3.org/2000/svg">
<path fill-rule="evenodd" clip-rule="evenodd" d="M5.82215 26.6676V11.7249C5.82215 4.95627 15.2636 5.02535 15.2636 11.7249V17.4688H21.0857V11.7238C21.0868 4.95626 30.5271 5.02572 30.5271 11.7249V15.8332V17.4688H36.3493V15.8332V11.4889C36.3493 0.591955 23.952 -2.18312 18.1697 3.80817C12.3826 -2.07593 0 0.347915 0 11.7249V16.472V26.6676V30.9858C0 42.3628 12.3826 44.7866 18.1697 38.9025C23.9522 44.8938 36.3493 42.1187 36.3493 31.2217V27.0437V23.9519H30.5271V27.0437V30.9858C30.5271 37.685 21.0868 37.7544 21.0857 30.9869V23.9519H15.2636V30.9858C15.2636 37.6853 5.82215 37.7544 5.82215 30.9858V26.6676Z" fill="#1BC5BD"/>
<path fill-rule="evenodd" clip-rule="evenodd" d="M40.4365 22.9532V20.9411H38.5013C37.8362 20.9411 37.273 21.291 37.3093 22.0349C37.3322 22.5085 37.671 22.9459 38.3374 22.9416C38.3374 22.9416 38.359 23.4122 38.6727 23.7308C39.1298 24.1954 40.0468 24.0807 40.3349 23.4667C40.4052 23.317 40.4365 23.1443 40.4365 22.9532ZM40.8713 18.5623V20.5744H42.8065C43.4716 20.5744 44.0347 20.2243 43.9985 19.4806C43.9754 19.007 43.6368 18.5696 42.9702 18.5737C42.9702 18.5737 42.9486 18.1031 42.6351 17.7847C42.178 17.3199 41.261 17.4348 40.9726 18.0488C40.9026 18.1983 40.8713 18.3712 40.8713 18.5623ZM40.4365 18.5623V20.5744H38.5013C37.8362 20.5744 37.273 20.2245 37.3093 19.4806C37.3324 19.007 37.671 18.5696 38.3374 18.5737C38.3374 18.5737 38.359 18.1033 38.6727 17.7847C39.1298 17.3199 40.0468 17.4346 40.3349 18.0488C40.4053 18.1983 40.4365 18.3712 40.4365 18.5623ZM40.8713 22.9532V20.9411H42.8065C43.4716 20.9411 44.0347 21.291 43.9985 22.0349C43.9754 22.5083 43.6368 22.9459 42.9702 22.9416C42.9702 22.9416 42.9486 23.4122 42.6351 23.7308C42.178 24.1954 41.2608 24.0807 40.9726 23.4667C40.9026 23.317 40.8713 23.1443 40.8713 22.9532Z" fill="#1BC5BD"/>
</svg>
